<svg xmlns="http://www.w3.org/2000/svg" xml:space="preserve" viewBox="226.68 353.87 572.83 318.47" fill="#33A453"><path d="M517.995 672.306c-58.238.998-111.117-15.728-160.774-44.073-48.167-27.495-88.722-64.049-125.064-105.559-7.2-8.224-7.346-10.526-.154-18.825 45.12-52.068 96.509-96.144 160.273-124.096 32.411-14.208 66.187-22.865 101.694-25.229 62.394-4.153 119.694 11.775 173.566 42.184 49.374 27.87 90.696 65.27 127.429 108.049 5.763 6.712 5.994 9.428.979 15.267C748.458 575.3 693.94 621.426 625.816 649.57c-34.337 14.186-70.086 22.057-107.821 22.735m16.228-284.978c-10.813-.189-21.596-.768-32.446-.392-31.206 1.08-60.957 8.364-89.603 20.313-54.694 22.815-99.85 58.876-140.1 101.662-2.646 2.812-3.019 4.91-.132 7.946 10.337 10.877 20.949 21.463 32.11 31.487 44.14 39.648 93.44 70.026 151.707 84.253 34.127 8.334 68.437 9.345 102.951 2.651 42.545-8.25 80.898-26.291 116.729-50.134 28.587-19.022 53.796-41.996 77.458-66.755 5.056-5.29 5.17-5.274 0-10.716-27.416-28.86-57.124-54.947-91.155-75.894-38.992-24-80.746-39.974-127.52-44.42"/><path d="M530.38 574c-.01 4.997.053 9.496-.048 13.992-.212 9.4-8.185 17.115-17.473 17.003-9.173-.112-16.972-7.54-17.129-16.829-.216-12.823-.084-25.653-.084-38.48 0-36.648-.023-73.297.03-109.945.016-10.708 6.664-17.894 16.494-18.13 10.893-.261 18.152 6.78 18.167 17.955.06 44.644.036 89.289.044 134.433M598.122 514c.013 18.156.084 35.813.012 53.469-.031 7.493-2.588 13.732-9.836 17.135-6.66 3.127-12.987 2.258-18.82-2.04-4.43-3.265-6.746-7.816-6.754-13.302-.051-34.979-.102-69.959.03-104.938.037-9.597 6.902-16.95 15.73-17.644 10.098-.795 17.116 4.654 19.042 14.91 1.333 7.1.45 14.285.563 21.428.162 10.159.036 20.321.033 30.982m-170.117 16c.004-12.318-.062-24.136.053-35.953.032-3.31.2-6.712.993-9.9 2.069-8.324 9.977-13.293 19.149-12.428 7.915.746 14.985 7.895 15.037 16.11.175 27.463.17 54.929-.001 82.391-.051 8.1-7.256 15.367-15.083 16.086-9.478.87-17.43-4.527-19.47-13.428-.55-2.404-.69-4.945-.7-7.424-.054-11.651.004-23.303.022-35.454"/></svg>